<svg width="26" height="26" viewBox="0 0 26 26" fill="none" xmlns="http://www.w3.org/2000/svg">
<path d="M24.8355 16.4327C24.8355 16.902 24.4553 17.2822 23.9861 17.2822H2.01377C1.54454 17.2822 1.16433 16.902 1.16433 16.4327C1.16433 10.5147 5.53047 5.59733 11.2106 4.73226C11.1595 4.56192 11.1311 4.38184 11.1311 4.19507C11.1311 3.16464 11.9695 2.32629 12.9999 2.32629C14.0304 2.32629 14.8687 3.16464 14.8687 4.19507C14.8687 4.38184 14.8404 4.56192 14.7892 4.73226C20.4694 5.59722 24.8355 10.5147 24.8355 16.4327Z" fill="#10b981"/>
<path fill-rule="evenodd" clip-rule="evenodd" d="M0.0625 20.7808C0.0625 19.9731 0.717288 19.3183 1.52501 19.3183H24.4752C25.2829 19.3183 25.9377 19.9731 25.9377 20.7808C25.9377 21.5885 25.2829 22.2433 24.4752 22.2433H1.52501C0.717288 22.2433 0.0625 21.5885 0.0625 20.7808Z" fill="#10b981"/>
</svg>
