<svg width="26" height="26" viewBox="0 0 26 26" fill="none" xmlns="http://www.w3.org/2000/svg">
    <path
        d="M14.1384 2.85348C13.8204 2.58491 13.417 2.4375 13 2.4375C12.5831 2.4375 12.1796 2.58491 11.8616 2.85348L3.05951 10.2919C2.86461 10.4565 2.70801 10.6614 2.60059 10.8923C2.49318 11.1233 2.43753 11.3747 2.4375 11.6293V22.6215C2.4375 23.0865 2.62297 23.5326 2.95311 23.8614C3.28326 24.1903 3.73103 24.375 4.19792 24.375H9.77257C10.006 24.375 10.2299 24.2826 10.395 24.1182C10.56 23.9538 10.6528 23.7308 10.6528 23.4982V16.1919H15.3472V23.4982C15.3472 23.9822 15.7416 24.375 16.2274 24.375H21.8021C22.269 24.375 22.7167 24.1903 23.0469 23.8614C23.377 23.5326 23.5625 23.0865 23.5625 22.6215V11.6293C23.5625 11.3747 23.5068 11.1233 23.3994 10.8923C23.292 10.6614 23.1354 10.4565 22.9405 10.2919L14.1384 2.85348Z"
        fill="#232426" />
</svg>