<svg width="26" height="26" viewBox="0 0 26 26" fill="none" xmlns="http://www.w3.org/2000/svg">
<path d="M11.375 5.38221C9.60328 4.51088 7.65805 4.05952 5.6875 4.06251C3.64812 4.06251 1.71763 4.53852 0 5.38221V21.7963C1.77173 20.9251 3.71695 20.4737 5.6875 20.4766C8.39962 20.4766 10.9167 21.3138 13 22.75C15.1549 21.2649 17.7038 20.4725 20.3125 20.4766C22.3519 20.4766 24.2824 20.9527 26 21.7963V5.38221C24.2283 4.51088 22.2831 4.05952 20.3125 4.06251C18.2731 4.06251 16.3426 4.53852 14.625 5.38221V17.1938C14.625 17.6291 14.4538 18.0466 14.149 18.3545C13.8443 18.6623 13.431 18.8352 13 18.8352C12.569 18.8352 12.1557 18.6623 11.851 18.3545C11.5462 18.0466 11.375 17.6291 11.375 17.1938V5.38221Z" fill="#232426"/>
</svg>
