<svg width="28" height="28" viewBox="0 0 28 28" fill="none" xmlns="http://www.w3.org/2000/svg">
<path fill-rule="evenodd" clip-rule="evenodd" d="M25.375 14C25.375 20.2818 20.2818 25.375 14 25.375C7.71816 25.375 2.625 20.2818 2.625 14C2.625 7.71816 7.71816 2.625 14 2.625C20.2818 2.625 25.375 7.71816 25.375 14ZM14.4076 11.0226C13.3014 11.4823 11.0899 12.435 7.77408 13.8796C7.23567 14.0938 6.95319 14.3033 6.92759 14.5081C6.88399 14.855 7.31814 14.9915 7.90774 15.1764C7.98831 15.202 8.07173 15.2276 8.15704 15.256C8.73811 15.4446 9.5192 15.6655 9.92491 15.674C10.2936 15.6816 10.705 15.5299 11.1591 15.219C14.2569 13.127 15.856 12.07 15.9565 12.0473C16.0276 12.0312 16.1262 12.0103 16.1925 12.07C16.2589 12.1288 16.2523 12.2407 16.2456 12.271C16.202 12.4539 14.5014 14.036 13.6199 14.855C13.345 15.11 13.1507 15.2911 13.1109 15.3328C13.0218 15.4247 12.9307 15.5129 12.8435 15.5972C12.3032 16.1167 11.8994 16.5072 12.8663 17.1442C13.3308 17.4504 13.7024 17.7035 14.073 17.9557C14.4777 18.2315 14.8816 18.5064 15.4048 18.8495C15.5375 18.9368 15.6645 19.0268 15.7887 19.115C16.2598 19.4515 16.6836 19.7529 17.2068 19.7055C17.5101 19.6771 17.8248 19.3918 17.9841 18.5396C18.3604 16.5243 19.1017 12.1601 19.2733 10.3609C19.2837 10.2116 19.2773 10.0615 19.2543 9.91353C19.2405 9.79403 19.1823 9.68407 19.0913 9.60546C18.9557 9.49455 18.7453 9.47085 18.6505 9.47275C18.223 9.48033 17.567 9.70878 14.4076 11.0226Z" fill="#10b981"/>
</svg>
