<svg width="28" height="28" viewBox="0 0 28 28" fill="none" xmlns="http://www.w3.org/2000/svg">
<path d="M27.125 20.8056V9.13889C27.125 9.13889 15.1813 17.3704 14.0197 17.7975C12.8778 17.3898 0.875 9.13889 0.875 9.13889V20.8056C0.875 22.4259 1.22281 22.75 2.84375 22.75H25.1562C26.8159 22.75 27.125 22.4655 27.125 20.8056ZM27.106 6.85157C27.106 5.6713 26.7575 5.25 25.1562 5.25H2.84375C1.19656 5.25 0.875 5.75556 0.875 6.93519L0.894687 7.11667C0.894687 7.11667 12.7525 15.1796 14.0197 15.6204C15.3584 15.1083 27.125 6.93519 27.125 6.93519L27.106 6.85157Z" fill="#10b981"/>
</svg>
